# xmcd
#
# Track frame offsets:
# 180
# 14084
# 26297
# 37136
# 53292
# 69911
# 83715
# 96489
# 111838
# 123848
#
# Disc length: 1828 seconds
#
#
# Revision: 0
# Processed by: cddbd v1.5.1PL0 Copyright (c) Steve Scherf et al.
# Submitted via: FreeRIP 2.70 
#
DISCID=7807220a
DTITLE=John Evans - Biggest Fool in Town
DYEAR=1998
DGENRE=Country
TTITLE0=My Kind Of Love
TTITLE1=Lovestick Fool
TTITLE2=Angel Fan The Fire
TTITLE3=Just Today
TTITLE4=Two Mommas
TTITLE5=Midnight Train
TTITLE6=Cry You A Bayou
TTITLE7=Too Much
TTITLE8=I Still Taste Your Kisses
TTITLE9=Two Swingin´ Doors
EXTD=
EXTT0=
EXTT1=
EXTT2=
EXTT3=
EXTT4=
EXTT5=
EXTT6=
EXTT7=
EXTT8=
EXTT9=
PLAYORDER=
